<?xml version="1.0" standalone="no"?><!DOCTYPE svg PUBLIC "-//W3C//DTD SVG 1.1//EN" "http://www.w3.org/Graphics/SVG/1.1/DTD/svg11.dtd"><svg t="1708418805217" class="icon" viewBox="0 0 1024 1024" version="1.1" xmlns="http://www.w3.org/2000/svg" p-id="22387" width="82" height="82" xmlns:xlink="http://www.w3.org/1999/xlink"><path d="M393.216 729.088h-139.264c-67.584 0-122.88-75.776-122.88-143.36s55.296-143.36 122.88-143.36h40.96v-81.92h614.4v143.36c0 169.984-137.216 307.2-307.2 307.2-81.92 0-155.648-30.72-208.896-81.92z m-63.488-81.92c-20.48-36.864-32.768-77.824-34.816-122.88h-40.96c-22.528 0-40.96 38.912-40.96 61.44s18.432 61.44 40.96 61.44h75.776z" fill="#FF5A08" p-id="22388"></path><path d="M335.872 892.928h532.48c22.528 0 40.96 18.432 40.96 40.96s-18.432 40.96-40.96 40.96h-532.48c-22.528 0-40.96-18.432-40.96-40.96s18.432-40.96 40.96-40.96zM380.928 32.768l47.104 47.104c-34.816 34.816-34.816 92.16 0 126.976 2.048 2.048 6.144 6.144 10.24 8.192l20.48 14.336-40.96 53.248-20.48-14.336c-6.144-4.096-12.288-10.24-16.384-14.336-61.44-59.392-61.44-159.744 0-221.184zM585.728 73.728l47.104 47.104c-34.816 34.816-34.816 92.16 0 126.976 2.048 2.048 6.144 6.144 10.24 8.192l20.48 14.336-40.96 53.248-20.48-14.336c-6.144-4.096-12.288-10.24-16.384-14.336-61.44-59.392-61.44-159.744 0-221.184zM790.528 32.768l47.104 47.104c-34.816 34.816-34.816 92.16 0 126.976 2.048 2.048 6.144 6.144 10.24 8.192l20.48 14.336-40.96 53.248-20.48-14.336c-6.144-4.096-12.288-10.24-16.384-14.336-61.44-59.392-61.44-159.744 0-221.184z" fill="#FF5A08" opacity=".3" p-id="22389"></path></svg>