<?xml version="1.0" standalone="no"?><!DOCTYPE svg PUBLIC "-//W3C//DTD SVG 1.1//EN" "http://www.w3.org/Graphics/SVG/1.1/DTD/svg11.dtd"><svg t="1708418894601" class="icon" viewBox="0 0 1024 1024" version="1.1" xmlns="http://www.w3.org/2000/svg" p-id="24106" width="82" height="82" xmlns:xlink="http://www.w3.org/1999/xlink"><path d="M657.408 333.824v81.92h122.88c22.528 0 40.96 18.432 40.96 40.96v122.88c0 22.528-18.432 40.96-40.96 40.96h-122.88v81.92h122.88c67.584 0 122.88-55.296 122.88-122.88v-122.88c0-67.584-55.296-122.88-122.88-122.88h-122.88zM196.608 251.904c32.768-49.152 90.112-81.92 153.6-81.92s120.832 32.768 153.6 81.92h-307.2z" fill="#FF5A08" opacity=".3" p-id="24107"></path><path d="M288.768 251.904c0-90.112 73.728-163.84 163.84-163.84s163.84 73.728 163.84 163.84h-327.68z" fill="#FF5A08" opacity=".3" p-id="24108"></path><path d="M495.616 251.904c10.24-47.104 51.2-81.92 100.352-81.92s90.112 34.816 100.352 81.92h-200.704z" fill="#FF5A08" opacity=".3" p-id="24109"></path><path d="M167.936 251.904H696.32c22.528 0 40.96 18.432 40.96 40.96v2.048l-34.816 575.488c-2.048 43.008-38.912 77.824-81.92 77.824H241.664c-43.008 0-79.872-34.816-81.92-77.824l-32.768-573.44c-2.048-22.528 16.384-40.96 38.912-43.008 0-2.048 0-2.048 2.048-2.048z" fill="#FF5A08" p-id="24110"></path><path d="M329.728 385.024c22.528 0 40.96 18.432 40.96 40.96v368.64c0 22.528-18.432 40.96-40.96 40.96s-40.96-18.432-40.96-40.96v-368.64c0-24.576 16.384-40.96 40.96-40.96zM534.528 385.024c22.528 0 40.96 18.432 40.96 40.96v368.64c0 22.528-18.432 40.96-40.96 40.96s-40.96-18.432-40.96-40.96v-368.64c0-24.576 16.384-40.96 40.96-40.96z" fill="#FFAA85" p-id="24111"></path></svg>