<?xml version="1.0" standalone="no"?><!DOCTYPE svg PUBLIC "-//W3C//DTD SVG 1.1//EN" "http://www.w3.org/Graphics/SVG/1.1/DTD/svg11.dtd"><svg t="1708418930281" class="icon" viewBox="0 0 1024 1024" version="1.1" xmlns="http://www.w3.org/2000/svg" p-id="25180" width="82" height="82" xmlns:xlink="http://www.w3.org/1999/xlink"><path d="M356.352 749.568v163.84c0 22.528 18.432 40.96 40.96 40.96h245.76c22.528 0 40.96-18.432 40.96-40.96V438.272c0-10.24-4.096-20.48-12.288-28.672L614.4 352.256c-8.192-8.192-12.288-18.432-12.288-28.672v-106.496c0-22.528-18.432-40.96-40.96-40.96h-81.92c-22.528 0-40.96 18.432-40.96 40.96v106.496c0 10.24-4.096 20.48-12.288 28.672L368.64 409.6c-8.192 8.192-12.288 18.432-12.288 28.672v106.496h163.84v204.8h-163.84z" fill="#FF5A08" p-id="25181"></path><path d="M479.232 53.248h81.92c22.528 0 40.96 18.432 40.96 40.96s-18.432 40.96-40.96 40.96h-81.92c-22.528 0-40.96-18.432-40.96-40.96s18.432-40.96 40.96-40.96z" fill="#FF5A08" opacity=".3" p-id="25182"></path></svg>