<?xml version="1.0" standalone="no"?><!DOCTYPE svg PUBLIC "-//W3C//DTD SVG 1.1//EN" "http://www.w3.org/Graphics/SVG/1.1/DTD/svg11.dtd"><svg t="1708418758494" class="icon" viewBox="0 0 1024 1024" version="1.1" xmlns="http://www.w3.org/2000/svg" p-id="22011" xmlns:xlink="http://www.w3.org/1999/xlink" width="82" height="82"><path d="M929.792 561.152v208.896c0 45.056-36.864 81.92-81.92 81.92h-245.76c0-45.056-36.864-81.92-81.92-81.92s-81.92 36.864-81.92 81.92h-245.76c-45.056 0-81.92-36.864-81.92-81.92v-491.52h819.2v167.936c-6.144-2.048-12.288-4.096-20.48-4.096-34.816 0-61.44 26.624-61.44 61.44s26.624 61.44 61.44 61.44c6.144-2.048 14.336-2.048 20.48-4.096z m-532.48 124.928c90.112 0 163.84-73.728 163.84-163.84s-73.728-163.84-163.84-163.84-163.84 73.728-163.84 163.84 71.68 163.84 163.84 163.84z m368.64 40.96c22.528 0 40.96-18.432 40.96-40.96s-18.432-40.96-40.96-40.96-40.96 18.432-40.96 40.96 18.432 40.96 40.96 40.96z m-532.48 122.88c22.528 0 40.96-18.432 40.96-40.96s-18.432-40.96-40.96-40.96-40.96 18.432-40.96 40.96 18.432 40.96 40.96 40.96z" fill="#FF5A08" p-id="22012"></path><path d="M831.488 229.376l-614.4-71.68c-16.384-2.048-30.72 4.096-38.912 18.432l-67.584 102.4h819.2c-26.624-26.624-61.44-45.056-98.304-49.152z" fill="#FF5A08" opacity=".3" p-id="22013"></path></svg>