<?xml version="1.0" standalone="no"?><!DOCTYPE svg PUBLIC "-//W3C//DTD SVG 1.1//EN" "http://www.w3.org/Graphics/SVG/1.1/DTD/svg11.dtd"><svg t="1708418821286" class="icon" viewBox="0 0 1024 1024" version="1.1" xmlns="http://www.w3.org/2000/svg" p-id="22813" width="82" height="82" xmlns:xlink="http://www.w3.org/1999/xlink"><path d="M352.256 702.464c94.208 0 163.84-43.008 163.84-81.92s-69.632-81.92-163.84-81.92-163.84 43.008-163.84 81.92 69.632 81.92 163.84 81.92z m184.32 176.128c-32.768 40.96-102.4 69.632-184.32 69.632-112.64 0-204.8-55.296-204.8-122.88v-204.8c0-67.584 92.16-122.88 204.8-122.88 81.92 0 151.552 28.672 184.32 69.632 32.768-40.96 102.4-69.632 184.32-69.632 112.64 0 204.8 55.296 204.8 122.88v204.8c0 67.584-92.16 122.88-204.8 122.88-81.92 0-151.552-28.672-184.32-69.632z m184.32-176.128c94.208 0 163.84-43.008 163.84-81.92s-69.632-81.92-163.84-81.92-163.84 43.008-163.84 81.92 69.632 81.92 163.84 81.92z" fill="#FF5A08" p-id="22814"></path><path d="M870.4 88.064c8.192 20.48-4.096 43.008-24.576 51.2L161.792 354.304c-10.24 4.096-22.528-2.048-26.624-12.288-4.096-10.24 2.048-22.528 12.288-26.624L819.2 63.488c20.48-8.192 43.008 2.048 51.2 24.576z m53.248 186.368c4.096 22.528-10.24 43.008-32.768 47.104h-2.048L182.272 425.984c-12.288 2.048-22.528-6.144-24.576-16.384-2.048-10.24 6.144-22.528 16.384-24.576l702.464-143.36c22.528-4.096 43.008 8.192 47.104 32.768 0-2.048 0-2.048 0 0z m-202.752 387.072c-34.816 0-61.44-18.432-61.44-40.96s26.624-40.96 61.44-40.96 61.44 18.432 61.44 40.96-26.624 40.96-61.44 40.96z m-368.64 0c-34.816 0-61.44-18.432-61.44-40.96s26.624-40.96 61.44-40.96 61.44 18.432 61.44 40.96-26.624 40.96-61.44 40.96z" fill="#FF5A08" opacity=".3" p-id="22815"></path></svg>