<?xml version="1.0" standalone="no"?><!DOCTYPE svg PUBLIC "-//W3C//DTD SVG 1.1//EN" "http://www.w3.org/Graphics/SVG/1.1/DTD/svg11.dtd"><svg t="1708418830453" class="icon" viewBox="0 0 1024 1024" version="1.1" xmlns="http://www.w3.org/2000/svg" p-id="23024" width="82" height="82" xmlns:xlink="http://www.w3.org/1999/xlink"><path d="M157.696 223.232c106.496-69.632 235.52-108.544 370.688-108.544s264.192 40.96 370.688 108.544l-368.64 669.696L157.696 223.232z" fill="#FF5A08" opacity=".3" p-id="23025"></path><path d="M430.08 380.928m-61.44 0a61.44 61.44 0 1 0 122.88 0 61.44 61.44 0 1 0-122.88 0Z" fill="#FF5A08" p-id="23026"></path><path d="M675.84 299.008m-61.44 0a61.44 61.44 0 1 0 122.88 0 61.44 61.44 0 1 0-122.88 0Z" fill="#FF5A08" p-id="23027"></path><path d="M552.96 626.688m-61.44 0a61.44 61.44 0 1 0 122.88 0 61.44 61.44 0 1 0-122.88 0Z" fill="#FF5A08" p-id="23028"></path></svg>