<?xml version="1.0" standalone="no"?><!DOCTYPE svg PUBLIC "-//W3C//DTD SVG 1.1//EN" "http://www.w3.org/Graphics/SVG/1.1/DTD/svg11.dtd"><svg t="1708418720403" class="icon" viewBox="0 0 1024 1024" version="1.1" xmlns="http://www.w3.org/2000/svg" p-id="21368" width="82" height="82" xmlns:xlink="http://www.w3.org/1999/xlink"><path d="M530.432 790.528c157.696 0 286.72-129.024 286.72-286.72s-129.024-286.72-286.72-286.72-286.72 129.024-286.72 286.72 126.976 286.72 286.72 286.72z m0 81.92c-202.752 0-368.64-165.888-368.64-368.64s165.888-368.64 368.64-368.64 368.64 165.888 368.64 368.64-165.888 368.64-368.64 368.64z" fill="#FF5A08" p-id="21369"></path><path d="M530.432 407.552c-26.624-40.96-40.96-73.728-40.96-94.208 0-30.72 18.432-57.344 40.96-57.344s40.96 24.576 40.96 57.344c0 22.528-14.336 53.248-40.96 94.208z m0 178.176c26.624 40.96 40.96 73.728 40.96 94.208 0 30.72-18.432 57.344-40.96 57.344s-40.96-24.576-40.96-57.344c0-20.48 12.288-51.2 40.96-94.208z m94.208-81.92c40.96-26.624 73.728-40.96 94.208-40.96 30.72 0 57.344 18.432 57.344 40.96s-24.576 40.96-57.344 40.96c-20.48 0-51.2-14.336-94.208-40.96z m-176.128 0c-40.96 26.624-73.728 40.96-94.208 40.96-30.72 0-57.344-18.432-57.344-40.96s24.576-40.96 57.344-40.96c20.48 0 51.2 14.336 94.208 40.96z m149.504-67.584c10.24-49.152 22.528-79.872 36.864-96.256 22.528-22.528 53.248-26.624 69.632-10.24 16.384 16.384 10.24 47.104-10.24 69.632-16.384 14.336-47.104 26.624-96.256 36.864zM471.04 561.152c-10.24 49.152-22.528 79.872-36.864 96.256-22.528 22.528-53.248 26.624-69.632 10.24-16.384-16.384-10.24-47.104 10.24-69.632 16.384-12.288 47.104-26.624 96.256-36.864z m126.976 10.24c49.152 10.24 79.872 22.528 96.256 36.864 22.528 22.528 26.624 53.248 10.24 69.632-16.384 16.384-47.104 10.24-69.632-10.24-14.336-14.336-26.624-47.104-36.864-96.256zM471.04 446.464c-49.152-10.24-79.872-22.528-96.256-36.864-22.528-22.528-26.624-53.248-10.24-69.632 16.384-16.384 47.104-10.24 69.632 10.24 14.336 14.336 26.624 47.104 36.864 96.256z" fill="#FF5A08" opacity=".3" p-id="21370"></path></svg>