<?xml version="1.0" standalone="no"?><!DOCTYPE svg PUBLIC "-//W3C//DTD SVG 1.1//EN" "http://www.w3.org/Graphics/SVG/1.1/DTD/svg11.dtd"><svg t="1708418887690" class="icon" viewBox="0 0 1024 1024" version="1.1" xmlns="http://www.w3.org/2000/svg" p-id="23890" width="82" height="82" xmlns:xlink="http://www.w3.org/1999/xlink"><path d="M362.496 190.464h532.48c22.528 0 40.96 18.432 40.96 40.96v450.56c0 90.112-73.728 163.84-163.84 163.84h-286.72c-90.112 0-163.84-73.728-163.84-163.84v-450.56c0-22.528 18.432-40.96 40.96-40.96z" fill="#FF5A08" opacity=".3" p-id="23891"></path><path d="M321.536 313.344v81.92h-81.92c-22.528 0-40.96 18.432-40.96 40.96v81.92c0 22.528 18.432 40.96 40.96 40.96h81.92v81.92h-81.92c-67.584 0-122.88-55.296-122.88-122.88v-81.92c0-67.584 55.296-122.88 122.88-122.88h81.92z" fill="#FF5A08" p-id="23892"></path><path d="M813.056 313.344c22.528 0 40.96 18.432 40.96 40.96v245.76c0 22.528-18.432 40.96-40.96 40.96s-40.96-18.432-40.96-40.96v-245.76c0-22.528 18.432-40.96 40.96-40.96z" fill="#FF5A08" opacity=".3" p-id="23893"></path></svg>