<?xml version="1.0" standalone="no"?><!DOCTYPE svg PUBLIC "-//W3C//DTD SVG 1.1//EN" "http://www.w3.org/Graphics/SVG/1.1/DTD/svg11.dtd"><svg t="1708418670303" class="icon" viewBox="0 0 1024 1024" version="1.1" xmlns="http://www.w3.org/2000/svg" p-id="20563" width="82" height="82" xmlns:xlink="http://www.w3.org/1999/xlink"><path d="M653.312 626.688l40.96 47.104c14.336 16.384 40.96 18.432 57.344 4.096l4.096-4.096 40.96-47.104h102.4c-24.576 118.784-129.024 204.8-249.856 204.8H411.648c-120.832 0-225.28-86.016-249.856-204.8h491.52zM899.072 380.928h-737.28c24.576-118.784 129.024-204.8 249.856-204.8h237.568c120.832 0 225.28 86.016 249.856 204.8z" fill="#FF5A08" p-id="20564"></path><path d="M161.792 462.848h737.28c22.528 0 40.96 18.432 40.96 40.96s-18.432 40.96-40.96 40.96h-737.28c-22.528 0-40.96-18.432-40.96-40.96s18.432-40.96 40.96-40.96z" fill="#FF5A08" opacity=".3" p-id="20565"></path></svg>