<?xml version="1.0" standalone="no"?><!DOCTYPE svg PUBLIC "-//W3C//DTD SVG 1.1//EN" "http://www.w3.org/Graphics/SVG/1.1/DTD/svg11.dtd"><svg t="1708418745485" class="icon" viewBox="0 0 1024 1024" version="1.1" xmlns="http://www.w3.org/2000/svg" p-id="21796" width="82" height="82" xmlns:xlink="http://www.w3.org/1999/xlink"><path d="M735.232 503.808h-430.08v-47.104c0-79.872 63.488-143.36 143.36-143.36h143.36c79.872 0 143.36 63.488 143.36 143.36v47.104z m0 96.256v286.72c0 26.624-20.48 47.104-47.104 47.104H352.256c-26.624 0-47.104-20.48-47.104-47.104v-286.72h430.08z" fill="#FF5A08" p-id="21797"></path><path d="M448.512 73.728h143.36c26.624 0 47.104 20.48 47.104 47.104v47.104c0 26.624-20.48 47.104-47.104 47.104h-143.36c-26.624 0-47.104-20.48-47.104-47.104V120.832c-2.048-24.576 20.48-47.104 47.104-47.104z" fill="#FF5A08" opacity=".3" p-id="21798"></path></svg>