<?xml version="1.0" standalone="no"?><!DOCTYPE svg PUBLIC "-//W3C//DTD SVG 1.1//EN" "http://www.w3.org/Graphics/SVG/1.1/DTD/svg11.dtd"><svg t="1708418770121" class="icon" viewBox="0 0 1024 1024" version="1.1" xmlns="http://www.w3.org/2000/svg" p-id="22172" width="82" height="82" xmlns:xlink="http://www.w3.org/1999/xlink"><path d="M356.352 73.728h327.68c22.528 0 40.96 18.432 40.96 40.96v40.96c0 22.528-18.432 40.96-40.96 40.96h-327.68c-22.528 0-40.96-18.432-40.96-40.96v-40.96c0-22.528 18.432-40.96 40.96-40.96z" fill="#FF5A08" opacity=".3" p-id="22173"></path><path d="M409.6 278.528h219.136c112.64 0 204.8 92.16 204.8 204.8v12.288l-22.528 360.448c-2.048 43.008-38.912 77.824-81.92 77.824H309.248c-43.008 0-79.872-32.768-81.92-77.824L204.8 495.616c-6.144-112.64 77.824-210.944 192.512-217.088h12.288z m-12.288 122.88c-45.056 0-81.92 36.864-81.92 81.92v40.96c0 45.056 36.864 81.92 81.92 81.92h245.76c45.056 0 81.92-36.864 81.92-81.92v-40.96c0-45.056-36.864-81.92-81.92-81.92h-245.76z" fill="#FF5A08" p-id="22174"></path></svg>