<?xml version="1.0" standalone="no"?><!DOCTYPE svg PUBLIC "-//W3C//DTD SVG 1.1//EN" "http://www.w3.org/Graphics/SVG/1.1/DTD/svg11.dtd"><svg t="1708418813411" class="icon" viewBox="0 0 1024 1024" version="1.1" xmlns="http://www.w3.org/2000/svg" p-id="22598" width="82" height="82" xmlns:xlink="http://www.w3.org/1999/xlink"><path d="M282.624 411.648l102.4-137.216c8.192-10.24 20.48-16.384 32.768-16.384h204.8c12.288 0 24.576 6.144 32.768 16.384l102.4 137.216c6.144 6.144 8.192 16.384 8.192 24.576v436.224c0 45.056-36.864 81.92-81.92 81.92h-327.68c-45.056 0-81.92-36.864-81.92-81.92V436.224c0-10.24 2.048-18.432 8.192-24.576z m114.688 92.16c-22.528 0-40.96 18.432-40.96 40.96v286.72c0 22.528 18.432 40.96 40.96 40.96h40.96c22.528 0 40.96-18.432 40.96-40.96v-286.72c0-22.528-18.432-40.96-40.96-40.96h-40.96z" fill="#FF5A08" p-id="22599"></path><path d="M438.272 53.248h163.84c22.528 0 40.96 18.432 40.96 40.96v40.96c0 22.528-18.432 40.96-40.96 40.96h-163.84c-22.528 0-40.96-18.432-40.96-40.96v-40.96c0-22.528 18.432-40.96 40.96-40.96z" fill="#FF5A08" opacity=".3" p-id="22600"></path></svg>