<?xml version="1.0" standalone="no"?><!DOCTYPE svg PUBLIC "-//W3C//DTD SVG 1.1//EN" "http://www.w3.org/Graphics/SVG/1.1/DTD/svg11.dtd"><svg t="1708418915762" class="icon" viewBox="0 0 1024 1024" version="1.1" xmlns="http://www.w3.org/2000/svg" p-id="24750" width="82" height="82" xmlns:xlink="http://www.w3.org/1999/xlink"><path d="M571.392 462.848h163.84c86.016 0 155.648 65.536 163.84 147.456l-28.672 28.672c-47.104 47.104-92.16 69.632-135.168 69.632-20.48 0-32.768-6.144-59.392-24.576-2.048-2.048-6.144-4.096-12.288-8.192-47.104-34.816-79.872-49.152-135.168-49.152-53.248 0-86.016 14.336-139.264 47.104-6.144 4.096-10.24 6.144-12.288 8.192-32.768 20.48-49.152 26.624-73.728 26.624-26.624 0-53.248-12.288-77.824-30.72-14.336-12.288-26.624-24.576-30.72-32.768-10.24-12.288-14.336-16.384-32.768-40.96 10.24-79.872 79.872-141.312 161.792-141.312h163.84v-81.92h81.92v81.92z" fill="#FF5A08" p-id="24751"></path><path d="M530.432 299.008c45.056 0 81.92-36.864 81.92-81.92 0-30.72-26.624-71.68-81.92-122.88-55.296 51.2-81.92 92.16-81.92 122.88 0 45.056 36.864 81.92 81.92 81.92zM899.072 722.944v149.504c0 22.528-18.432 40.96-40.96 40.96h-655.36c-22.528 0-40.96-18.432-40.96-40.96v-143.36c4.096 4.096 8.192 8.192 12.288 10.24 38.912 30.72 81.92 51.2 131.072 51.2 43.008 0 71.68-12.288 116.736-38.912 2.048-2.048 6.144-4.096 12.288-8.192 40.96-26.624 63.488-34.816 96.256-34.816s51.2 8.192 86.016 32.768c6.144 4.096 10.24 6.144 12.288 8.192 38.912 26.624 65.536 40.96 106.496 40.96 55.296 0 110.592-22.528 163.84-67.584z" fill="#FF5A08" opacity=".3" p-id="24752"></path></svg>