<?xml version="1.0" standalone="no"?><!DOCTYPE svg PUBLIC "-//W3C//DTD SVG 1.1//EN" "http://www.w3.org/Graphics/SVG/1.1/DTD/svg11.dtd"><svg t="1708418908209" class="icon" viewBox="0 0 1024 1024" version="1.1" xmlns="http://www.w3.org/2000/svg" p-id="24535" width="82" height="82" xmlns:xlink="http://www.w3.org/1999/xlink"><path d="M116.736 579.584h819.2c0 202.752-165.888 368.64-368.64 368.64h-81.92c-202.752 0-368.64-163.84-368.64-368.64z" fill="#FF5A08" p-id="24536"></path><path d="M720.896 65.536c18.432 10.24 24.576 34.816 14.336 53.248v2.048l-266.24 425.984c-6.144 10.24-18.432 12.288-28.672 6.144-10.24-6.144-14.336-18.432-8.192-28.672L665.6 79.872c10.24-18.432 34.816-26.624 55.296-14.336-2.048-2.048 0-2.048 0 0z m210.944 114.688c14.336 16.384 12.288 40.96-2.048 55.296h-2.048L542.72 559.104c-8.192 8.192-22.528 6.144-28.672-2.048-8.192-8.192-8.192-22.528 0-28.672L874.496 178.176c16.384-16.384 40.96-16.384 57.344 2.048 0-2.048 0-2.048 0 0z" fill="#FF5A08" opacity=".3" p-id="24537"></path></svg>