<?xml version="1.0" standalone="no"?><!DOCTYPE svg PUBLIC "-//W3C//DTD SVG 1.1//EN" "http://www.w3.org/Graphics/SVG/1.1/DTD/svg11.dtd"><svg t="1708418736656" class="icon" viewBox="0 0 1024 1024" version="1.1" xmlns="http://www.w3.org/2000/svg" p-id="21579" width="82" height="82" xmlns:xlink="http://www.w3.org/1999/xlink"><path d="M555.008 503.808c-65.536-237.568-24.576-389.12 122.88-452.608 90.112 126.976 49.152 278.528-122.88 452.608z" fill="#FF5A08" opacity=".3" p-id="21580"></path><path d="M972.8 348.16c-239.616-65.536-391.168-24.576-454.656 120.832 126.976 92.16 278.528 51.2 454.656-120.832z" fill="#FF5A08" opacity=".3" p-id="21581"></path><path d="M847.872 178.176c-239.616 63.488-350.208 174.08-331.776 331.776 153.6 14.336 264.192-96.256 331.776-331.776z" fill="#FF5A08" opacity=".3" p-id="21582"></path><path d="M133.12 751.616l12.288 12.288c16.384 16.384 40.96 16.384 57.344 0 16.384-16.384 16.384-40.96 0-57.344l-28.672-28.672 40.96-73.728 45.056 45.056c16.384 16.384 40.96 16.384 57.344 0 16.384-16.384 16.384-40.96 0-57.344L260.096 532.48c-2.048-2.048-2.048-2.048-4.096-2.048l40.96-73.728 77.824 77.824c16.384 16.384 40.96 16.384 57.344 0 16.384-16.384 16.384-40.96 0-57.344L348.16 387.072c-2.048-2.048-4.096-4.096-8.192-6.144l10.24-18.432c22.528-38.912 71.68-53.248 110.592-30.72 6.144 4.096 12.288 8.192 18.432 14.336l200.704 200.704c32.768 32.768 32.768 83.968 0 116.736-6.144 6.144-12.288 10.24-18.432 14.336l-491.52 274.432c-26.624 14.336-61.44 10.24-81.92-12.288-22.528-22.528-26.624-55.296-12.288-81.92l57.344-106.496z" fill="#FF5A08" p-id="21583"></path></svg>