<?xml version="1.0" standalone="no"?><!DOCTYPE svg PUBLIC "-//W3C//DTD SVG 1.1//EN" "http://www.w3.org/Graphics/SVG/1.1/DTD/svg11.dtd"><svg t="1708418922936" class="icon" viewBox="0 0 1024 1024" version="1.1" xmlns="http://www.w3.org/2000/svg" p-id="24965" width="82" height="82" xmlns:xlink="http://www.w3.org/1999/xlink"><path d="M561.152 786.432l151.552 59.392c8.192 4.096 12.288 10.24 12.288 18.432v6.144c0 12.288-8.192 20.48-20.48 20.48h-368.64c-12.288 0-20.48-8.192-20.48-20.48v-6.144c0-8.192 4.096-16.384 12.288-18.432l151.552-59.392V544.768h81.92v241.664z" fill="#FF5A08" opacity=".3" p-id="24966"></path><path d="M571.392 563.2c-34.816 28.672-86.016 22.528-114.688-12.288L186.368 215.04c-8.192-10.24-14.336-24.576-14.336-38.912 0-34.816 26.624-61.44 61.44-61.44h569.344c14.336 0 26.624 4.096 38.912 14.336 26.624 20.48 30.72 59.392 10.24 86.016L583.68 550.912c-4.096 4.096-8.192 10.24-12.288 12.288zM276.48 196.608l98.304 122.88h286.72l98.304-122.88H276.48z" fill="#FF5A08" p-id="24967"></path></svg>