<?xml version="1.0" standalone="no"?><!DOCTYPE svg PUBLIC "-//W3C//DTD SVG 1.1//EN" "http://www.w3.org/Graphics/SVG/1.1/DTD/svg11.dtd"><svg t="1708418694167" class="icon" viewBox="0 0 1024 1024" version="1.1" xmlns="http://www.w3.org/2000/svg" p-id="20939" width="82" height="82" xmlns:xlink="http://www.w3.org/1999/xlink"><path d="M471.04 272.384c4.096 2.048 8.192 6.144 14.336 6.144l133.12 36.864c22.528 6.144 45.056-6.144 49.152-28.672s-6.144-45.056-28.672-49.152L552.96 215.04c133.12-86.016 256-110.592 311.296-55.296 79.872 79.872-10.24 301.056-202.752 491.52s-411.648 282.624-491.52 202.752C118.784 802.816 137.216 696.32 206.848 573.44h2.048l118.784 32.768c22.528 6.144 45.056-6.144 49.152-28.672 6.144-22.528-6.144-45.056-28.672-49.152l-96.256-26.624c18.432-26.624 40.96-55.296 65.536-81.92h2.048l153.6 40.96c22.528 6.144 45.056-6.144 49.152-28.672 6.144-22.528-6.144-45.056-28.672-49.152l-112.64-30.72c32.768-30.72 61.44-57.344 90.112-79.872z" fill="#FF5A08" p-id="20940"></path></svg>