<?xml version="1.0" standalone="no"?><!DOCTYPE svg PUBLIC "-//W3C//DTD SVG 1.1//EN" "http://www.w3.org/Graphics/SVG/1.1/DTD/svg11.dtd"><svg t="1708418613676" class="icon" viewBox="0 0 1024 1024" version="1.1" xmlns="http://www.w3.org/2000/svg" p-id="20133" width="82" height="82" xmlns:xlink="http://www.w3.org/1999/xlink"><path d="M561.152 851.968c53.248 4.096 98.304 34.816 122.88 81.92h-327.68c24.576-47.104 69.632-77.824 122.88-81.92v-225.28h81.92v225.28z" fill="#FF5A08" opacity=".3" p-id="20134"></path><path d="M356.352 155.648l-20.48 163.84h368.64c-2.048-32.768-10.24-88.064-20.48-163.84h-327.68z m10.24-81.92h305.152c51.2 0 92.16 38.912 96.256 88.064l18.432 247.808c10.24 143.36-98.304 268.288-243.712 278.528h-26.624c-147.456 0-266.24-116.736-266.24-260.096v-20.48l18.432-247.808c6.144-47.104 49.152-86.016 98.304-86.016z" fill="#FF5A08" p-id="20135"></path></svg>