<?xml version="1.0" standalone="no"?><!DOCTYPE svg PUBLIC "-//W3C//DTD SVG 1.1//EN" "http://www.w3.org/Graphics/SVG/1.1/DTD/svg11.dtd"><svg t="1708418901571" class="icon" viewBox="0 0 1024 1024" version="1.1" xmlns="http://www.w3.org/2000/svg" p-id="24324" width="82" height="82" xmlns:xlink="http://www.w3.org/1999/xlink"><path d="M339.968 446.464c8.192 0 18.432 0 26.624 2.048 2.048 22.528 2.048 47.104-2.048 69.632 4.096 22.528 4.096 45.056 2.048 69.632-8.192 0-18.432 2.048-26.624 2.048-10.24 18.432-24.576 36.864-40.96 53.248-53.248 53.248-124.928 75.776-192.512 67.584-8.192-67.584 14.336-139.264 67.584-192.512-51.2-53.248-73.728-122.88-67.584-192.512 69.632-8.192 139.264 14.336 192.512 67.584 18.432 16.384 30.72 34.816 40.96 53.248z" fill="#FF5A08" opacity=".3" p-id="24325"></path><path d="M618.496 262.144c155.648 0 294.912 129.024 385.024 270.336-90.112 133.12-229.376 262.144-385.024 262.144S323.584 665.6 233.472 532.48c90.112-141.312 229.376-270.336 385.024-270.336z m245.76 286.72c22.528 0 40.96-18.432 40.96-40.96s-18.432-40.96-40.96-40.96-40.96 18.432-40.96 40.96 18.432 40.96 40.96 40.96z" fill="#FF5A08" p-id="24326"></path></svg>