<?xml version="1.0" standalone="no"?><!DOCTYPE svg PUBLIC "-//W3C//DTD SVG 1.1//EN" "http://www.w3.org/Graphics/SVG/1.1/DTD/svg11.dtd"><svg t="1708418708908" class="icon" viewBox="0 0 1024 1024" version="1.1" xmlns="http://www.w3.org/2000/svg" p-id="21153" width="82" height="82" xmlns:xlink="http://www.w3.org/1999/xlink"><path d="M850.65728 181.82144c94.12608 94.12608 94.12608 247.62368 0 341.77024-17.36704 17.36704-37.64224 31.8464-57.91744 43.43808l-208.54784 110.05952c-65.14688 33.30048-143.36 21.7088-195.4816-30.4128-52.14208-52.1216-63.73376-130.33472-30.4128-195.50208l110.05952-208.52736c60.8256-118.74304 205.6192-165.08928 322.92864-102.8096 23.16288 11.5712 43.43808 26.05056 59.392 41.984z" fill="#FF5A08" p-id="21154"></path><path d="M225.0752 720.52736l60.8256-60.8256 86.87616 86.89664-60.8256 60.8256c11.59168 23.16288 7.22944 50.688-11.59168 69.50912-24.61696 24.61696-62.2592 24.61696-86.87616 0-11.59168-11.59168-17.38752-26.07104-17.38752-40.5504-14.47936 0-28.95872-5.79584-40.5504-17.36704-24.61696-24.61696-24.61696-62.2592 0-86.89664 18.8416-18.8416 47.80032-21.7088 69.50912-11.59168z" fill="#FF5A08" opacity=".3" p-id="21155"></path></svg>