<?xml version="1.0" standalone="no"?><!DOCTYPE svg PUBLIC "-//W3C//DTD SVG 1.1//EN" "http://www.w3.org/Graphics/SVG/1.1/DTD/svg11.dtd"><svg t="1708413808693" class="icon" viewBox="0 0 1024 1024" version="1.1" xmlns="http://www.w3.org/2000/svg" p-id="40113" data-spm-anchor-id="a313x.search_index.0.i19.1b593a81eqaWVv" width="82" height="82" xmlns:xlink="http://www.w3.org/1999/xlink"><path d="M675.84 266.24H389.12c-67.584 0-122.88 55.296-122.88 122.88v286.72c-53.248-2.048-81.92-32.768-81.92-90.112V272.384c0-57.344 30.72-90.112 90.112-90.112h313.344c53.248 2.048 86.016 30.72 88.064 83.968z" opacity=".3" p-id="40114" fill="#f5b7ba" data-spm-anchor-id="a313x.search_index.0.i20.1b593a81eqaWVv" class="selected"></path><path d="M438.272 348.16h313.344c57.344 0 90.112 30.72 90.112 90.112v313.344c0 57.344-30.72 90.112-90.112 90.112H438.272c-57.344 0-90.112-30.72-90.112-90.112V438.272c0-59.392 30.72-90.112 90.112-90.112z" p-id="40115" data-spm-anchor-id="a313x.search_index.0.i18.1b593a81eqaWVv" class="" fill="#f5b7ba"></path></svg>