<?xml version="1.0" standalone="no"?><!DOCTYPE svg PUBLIC "-//W3C//DTD SVG 1.1//EN" "http://www.w3.org/Graphics/SVG/1.1/DTD/svg11.dtd"><svg t="1708246273391" class="icon" viewBox="0 0 1024 1024" version="1.1" xmlns="http://www.w3.org/2000/svg" p-id="1421" width="64" height="64" xmlns:xlink="http://www.w3.org/1999/xlink"><path d="M602.6 764.5h-321C188.7 764.5 113 688.9 113 596V286.7c0-92.9 75.6-168.5 168.5-168.5h321c92.9 0 168.5 75.6 168.5 168.5V596c0.1 92.9-75.5 168.5-168.4 168.5z m-321-550.2c-39.9 0-72.4 32.5-72.4 72.4V596c0 39.9 32.5 72.4 72.4 72.4h321c39.9 0 72.4-32.5 72.4-72.4V286.7c0-39.9-32.5-72.4-72.4-72.4h-321z" fill="#EED3D9" p-id="1422" data-spm-anchor-id="a313x.manage_type_mylikes.0.i20.73203a81CHZ8gL" class=""></path><path d="M573 592.5H305.9c-32.5 0-58.8-26.3-58.8-58.8s26.3-58.8 58.8-58.8H573c32.5 0 58.8 26.3 58.8 58.8-0.1 32.5-26.4 58.8-58.8 58.8zM573 408.2H305.9c-32.5 0-58.8-26.3-58.8-58.8s26.3-58.8 58.8-58.8H573c32.5 0 58.8 26.3 58.8 58.8s-26.4 58.8-58.8 58.8z" fill="#f5b7ba" p-id="1423" data-spm-anchor-id="a313x.manage_type_mylikes.0.i19.73203a81CHZ8gL" class=""></path><path d="M818.8 278.2V739.7c0 39.9-32.5 72.4-72.4 72.4H273.3c27.1 56.8 85.1 96.2 152.2 96.2h321c92.9 0 168.5-75.6 168.5-168.5V430.4c0-67.1-39.4-125.1-96.2-152.2z" fill="#EED3D9" p-id="1424" data-spm-anchor-id="a313x.manage_type_mylikes.0.i21.73203a81CHZ8gL" class=""></path></svg>