<?xml version="1.0" encoding="utf-8"?>
<!-- Generator: Adobe Illustrator 28.2.0, SVG Export Plug-In . SVG Version: 6.00 Build 0)  -->
<svg version="1.1" id="图层_1" xmlns="http://www.w3.org/2000/svg" xmlns:xlink="http://www.w3.org/1999/xlink" x="0px" y="0px"
	 viewBox="0 0 64 64" style="enable-background:new 0 0 64 64;" xml:space="preserve">
<style type="text/css">
	.st0{display:none;}
	.st1{fill:#FFFFFF;stroke:url(#SVGID_1_);stroke-width:4;stroke-miterlimit:10;}
	.st2{fill:url(#SVGID_00000005962320415568155770000000273863297711837625_);}
	.st3{fill:#F5B7BA;}
	.st4{fill:url(#SVGID_00000141456186693279744320000010200688017981314236_);}
</style>
<rect x="-9.4" y="-9.4" class="st0" width="82.3" height="82.3"/>
<linearGradient id="SVGID_1_" gradientUnits="userSpaceOnUse" x1="12.5041" y1="-1.7678" x2="51.4959" y2="65.7678">
	<stop  offset="0" style="stop-color:#F5B7BA"/>
	<stop  offset="1" style="stop-color:#F5B7BA"/>
</linearGradient>
<path class="st1" d="M53.8,61H10.2c-4,0-7.2-3.2-7.2-7.2V10.2C3,6.2,6.2,3,10.2,3h43.7c4,0,7.2,3.2,7.2,7.2v43.7
	C61,57.8,57.8,61,53.8,61z"/>
<linearGradient id="SVGID_00000161609863031411552140000014334278135424540861_" gradientUnits="userSpaceOnUse" x1="15.668" y1="6.8729" x2="39.5847" y2="48.2978">
	<stop  offset="0" style="stop-color:#F5B7BA"/>
	<stop  offset="1" style="stop-color:#EED3D9"/>
</linearGradient>
<path style="fill:url(#SVGID_00000161609863031411552140000014334278135424540861_);" d="M37.7,47.8H17.6c-5.8,0-10.5-4.7-10.5-10.5
	V17.9c0-5.8,4.7-10.5,10.5-10.5h20.1c5.8,0,10.5,4.7,10.5,10.5v19.3C48.2,43.1,43.5,47.8,37.7,47.8z M17.6,13.4
	c-2.5,0-4.5,2-4.5,4.5v19.3c0,2.5,2,4.5,4.5,4.5h20.1c2.5,0,4.5-2,4.5-4.5V17.9c0-2.5-2-4.5-4.5-4.5C37.7,13.4,17.6,13.4,17.6,13.4z
	"/>
<path class="st3" d="M35.8,37H19.1c-2,0-3.7-1.6-3.7-3.7s1.6-3.7,3.7-3.7h16.7c2,0,3.7,1.6,3.7,3.7C39.5,35.4,37.8,37,35.8,37z
	 M35.8,25.5H19.1c-2,0-3.7-1.6-3.7-3.7s1.6-3.7,3.7-3.7h16.7c2,0,3.7,1.6,3.7,3.7S37.8,25.5,35.8,25.5z"/>
<linearGradient id="SVGID_00000038409947739083869100000012401410361350132667_" gradientUnits="userSpaceOnUse" x1="31.9566" y1="28.4832" x2="48.5838" y2="57.2823">
	<stop  offset="0" style="stop-color:#F5B7BA"/>
	<stop  offset="1" style="stop-color:#EED3D9"/>
</linearGradient>
<path style="fill:url(#SVGID_00000038409947739083869100000012401410361350132667_);" d="M51.2,17.4v28.8c0,2.5-2,4.5-4.5,4.5H17.1
	c1.7,3.5,5.3,6,9.5,6h20.1c5.8,0,10.5-4.7,10.5-10.5V26.9C57.2,22.7,54.7,19.1,51.2,17.4z"/>
</svg>
