<?xml version="1.0" standalone="no"?><!DOCTYPE svg PUBLIC "-//W3C//DTD SVG 1.1//EN" "http://www.w3.org/Graphics/SVG/1.1/DTD/svg11.dtd"><svg t="1708418480020" class="icon" viewBox="0 0 1024 1024" version="1.1" xmlns="http://www.w3.org/2000/svg" p-id="19918" width="82" height="82" xmlns:xlink="http://www.w3.org/1999/xlink"><path d="M899.072 428.032v342.016c0 45.056-36.864 81.92-81.92 81.92h-409.6c-45.056 0-81.92-36.864-81.92-81.92V428.032c-49.152-22.528-81.92-71.68-81.92-129.024 0-79.872 63.488-143.36 143.36-143.36h450.56c79.872 0 143.36 63.488 143.36 143.36 0 57.344-34.816 106.496-81.92 129.024z" fill="#FF5A08" opacity=".3" p-id="19919"></path><path d="M735.232 428.032v342.016c0 45.056-36.864 81.92-81.92 81.92h-409.6c-45.056 0-81.92-36.864-81.92-81.92V428.032c-49.152-22.528-81.92-71.68-81.92-129.024 0-79.872 63.488-143.36 143.36-143.36h450.56c79.872 0 143.36 63.488 143.36 143.36 0 57.344-34.816 106.496-81.92 129.024z" fill="#FF5A08" p-id="19920"></path></svg>